<svg width="184" height="32" viewBox="0 0 184 32" fill="none" xmlns="http://www.w3.org/2000/svg" aria-label="Pole.IO">
  <path d="M5.4 7.2C5.4 4.8804 7.2804 3 9.6 3H23.7C29.7127 3 34.35 7.2518 34.35 12.88C34.35 18.5082 29.7127 22.76 23.7 22.76H16.95V29H5.4V7.2Z" fill="url(#poleFullMarkBase)"/>
  <path d="M16.95 12.32H23.05C24.4524 12.32 25.45 11.4246 25.45 10.16C25.45 8.8954 24.4524 8 23.05 8H16.95V12.32Z" fill="#EAFBF7"/>
  <path d="M16.95 17.72H23.7C26.7655 17.72 29.15 15.68 29.15 12.88C29.15 10.08 26.7655 8.04 23.7 8.04H16.95V17.72Z" fill="url(#poleFullMarkCut)" opacity="0.92"/>
  <path d="M2.8 6.2C2.8 4.4327 4.2327 3 6 3H28.3C30.0673 3 31.5 4.4327 31.5 6.2V8.04H2.8V6.2Z" fill="url(#poleFullMarkCap)"/>
  <circle cx="8.65" cy="6.08" r="1.35" fill="#EAFBF7" opacity="0.82"/>
  <circle cx="27.05" cy="6.08" r="1.35" fill="#EAFBF7" opacity="0.82"/>
  <text x="43" y="23.4" fill="currentColor" font-family="Inter, PingFang SC, Microsoft YaHei, Arial, sans-serif" font-size="22" font-weight="760" letter-spacing="0">Pole</text>
  <text x="90" y="23.4" fill="currentColor" fill-opacity="0.72" font-family="Inter, PingFang SC, Microsoft YaHei, Arial, sans-serif" font-size="20" font-weight="680" letter-spacing="0">.IO</text>
  <defs>
    <linearGradient id="poleFullMarkBase" x1="5.4" y1="4.7" x2="27.6" y2="31.4" gradientUnits="userSpaceOnUse">
      <stop stop-color="#1B7CFF"/>
      <stop offset="0.54" stop-color="#0AA9FF"/>
      <stop offset="1" stop-color="#00B08A"/>
    </linearGradient>
    <linearGradient id="poleFullMarkCut" x1="16.95" y1="8.04" x2="31.2" y2="17.1" gradientUnits="userSpaceOnUse">
      <stop stop-color="#21C6FF"/>
      <stop offset="1" stop-color="#00C389"/>
    </linearGradient>
    <linearGradient id="poleFullMarkCap" x1="2.8" y1="3" x2="31.5" y2="8.04" gradientUnits="userSpaceOnUse">
      <stop stop-color="#1B7CFF"/>
      <stop offset="0.5" stop-color="#00A6FF"/>
      <stop offset="1" stop-color="#59E042"/>
    </linearGradient>
  </defs>
</svg>
